<svg width="94" height="94" viewBox="0 0 94 94" fill="none" xmlns="http://www.w3.org/2000/svg">
<path fill-rule="evenodd" clip-rule="evenodd" d="M7.83286 46.9999C7.83286 25.3687 25.3684 7.83325 46.9996 7.83325C57.3871 7.83325 67.3494 11.9597 74.6946 19.3049C82.0397 26.6501 86.1661 36.6123 86.1661 46.9999C86.1661 68.6311 68.6307 86.1666 46.9996 86.1666C25.3684 86.1666 7.83286 68.6311 7.83286 46.9999ZM39.8322 63.7633L62.6663 49.5066C63.5208 48.9594 64.0376 48.0147 64.0376 46.9999C64.0376 45.9853 63.5208 45.0404 62.6663 44.4933L39.7538 30.2366C38.8514 29.6676 37.7113 29.6327 36.7757 30.1451C35.8401 30.6577 35.2559 31.6372 35.2497 32.7041V61.2958C35.2371 62.3886 35.8321 63.3981 36.7942 63.9161C37.7564 64.4343 38.9267 64.3754 39.8322 63.7633Z" fill="white"/>
</svg>
