<svg width="24" height="24" viewBox="0 0 24 24" fill="none" xmlns="http://www.w3.org/2000/svg">
<path fill-rule="evenodd" clip-rule="evenodd" d="M2.41791 2.43613C2.68557 2.16831 3.04856 2.01786 3.42704 2.01786C3.80551 2.01786 4.1685 2.16831 4.43616 2.43613L11.9911 9.99755L19.546 2.43613C19.6777 2.29968 19.8352 2.19085 20.0093 2.11598C20.1834 2.04111 20.3707 2.0017 20.5603 2.00005C20.7498 1.99841 20.9377 2.03455 21.1131 2.10638C21.2886 2.17821 21.4479 2.28429 21.5819 2.41842C21.716 2.55255 21.8219 2.71205 21.8937 2.88762C21.9655 3.06319 22.0016 3.2513 21.9999 3.44098C21.9983 3.63067 21.9589 3.81813 21.8841 3.99242C21.8093 4.16671 21.7006 4.32434 21.5642 4.45613L14.0093 12.0176L21.5642 19.579C21.8243 19.8484 21.9681 20.2093 21.9649 20.5838C21.9616 20.9584 21.8115 21.3167 21.5469 21.5816C21.2822 21.8464 20.9242 21.9967 20.55 21.9999C20.1757 22.0032 19.8152 21.8592 19.546 21.599L11.9911 14.0376L4.43616 21.599C4.16697 21.8592 3.80642 22.0032 3.43217 21.9999C3.05793 21.9967 2.69993 21.8464 2.43529 21.5816C2.17065 21.3167 2.02054 20.9584 2.01729 20.5838C2.01404 20.2093 2.1579 19.8484 2.41791 19.579L9.97282 12.0176L2.41791 4.45613C2.15032 4.18823 2 3.82493 2 3.44613C2 3.06732 2.15032 2.70402 2.41791 2.43613Z" fill="#999999"/>
</svg>
