<svg width="24" height="24" viewBox="0 0 24 24" fill="none" xmlns="http://www.w3.org/2000/svg">
<rect width="24" height="24" rx="12" fill="#999999"/>
<path d="M17.9893 6H6V18H17.9893V6Z" fill="#999999"/>
<path fill-rule="evenodd" clip-rule="evenodd" d="M11.9947 6C8.6976 6 6 8.7 6 12C6 15.3 8.6976 18 11.9947 18C15.2917 18 17.9893 15.3 17.9893 12C17.9893 8.7 15.3217 6 11.9947 6ZM14.7522 14.67C14.6323 14.85 14.4225 14.91 14.2427 14.79C12.8339 13.92 11.0655 13.74 8.96736 14.22C8.75755 14.28 8.57771 14.13 8.51776 13.95C8.45782 13.74 8.60768 13.56 8.78752 13.5C11.0655 12.99 13.0437 13.2 14.6024 14.16C14.8122 14.25 14.8421 14.49 14.7522 14.67ZM15.4716 13.02C15.3217 13.23 15.052 13.32 14.8421 13.17C13.2236 12.18 10.7658 11.88 8.87744 12.48C8.63766 12.54 8.3679 12.42 8.30795 12.18C8.248 11.94 8.3679 11.67 8.60768 11.61C10.7957 10.95 13.4933 11.28 15.3517 12.42C15.5315 12.51 15.6214 12.81 15.4716 13.02ZM15.5315 11.34C13.6132 10.2 10.4061 10.08 8.57771 10.65C8.27798 10.74 7.97824 10.56 7.88832 10.29C7.7984 9.99 7.97824 9.69 8.248 9.6C10.3761 8.97 13.883 9.09 16.101 10.41C16.3708 10.56 16.4607 10.92 16.3108 11.19C16.161 11.4 15.8013 11.49 15.5315 11.34Z" fill="white"/>
</svg>
