<svg width="24" height="24" viewBox="0 0 24 24" fill="none" xmlns="http://www.w3.org/2000/svg">
<g clip-path="url(#clip0_5231_12361)">
<rect width="24" height="24" rx="12" fill="#999999"/>
<path d="M17.7559 9.32087C17.6876 9.06749 17.5541 8.83642 17.3688 8.65064C17.1834 8.46487 16.9527 8.33089 16.6994 8.26202C15.7605 8.0042 12.0042 8 12.0042 8C12.0042 8 8.24841 7.99581 7.30888 8.24223C7.05581 8.31427 6.82551 8.45015 6.64009 8.63683C6.45467 8.82352 6.32035 9.05473 6.25002 9.30828C6.0024 10.2472 6 12.1946 6 12.1946C6 12.1946 5.9976 14.1517 6.24343 15.081C6.38133 15.5948 6.78605 16.0007 7.30048 16.1392C8.24901 16.3971 11.9952 16.4013 11.9952 16.4013C11.9952 16.4013 15.7515 16.4055 16.6904 16.1596C16.9438 16.0909 17.1747 15.9572 17.3606 15.7718C17.5464 15.5864 17.6806 15.3557 17.7499 15.1026C17.9981 14.1642 17.9999 12.2174 17.9999 12.2174C17.9999 12.2174 18.0119 10.2598 17.7559 9.32087ZM10.8026 13.9988L10.8056 10.4013L13.9276 12.203L10.8026 13.9988Z" fill="white"/>
</g>
<defs>
<clipPath id="clip0_5231_12361">
<rect width="24" height="24" fill="white"/>
</clipPath>
</defs>
</svg>
