<svg width="24" height="24" viewBox="0 0 24 24" fill="none" xmlns="http://www.w3.org/2000/svg">
<rect width="24" height="24" rx="12" fill="white"/>
<path d="M6.00005 17.5556L6.86102 14.3543C6.16667 13.1072 5.94606 11.652 6.23969 10.2556C6.53332 8.8593 7.32148 7.6155 8.45955 6.75249C9.59762 5.88947 11.0093 5.46512 12.4354 5.55732C13.8616 5.64952 15.2066 6.25207 16.2237 7.25441C17.2408 8.25675 17.8617 9.59164 17.9725 11.0141C18.0833 12.4366 17.6765 13.8513 16.8269 14.9985C15.9772 16.1458 14.7417 16.9487 13.3469 17.2599C11.9522 17.5711 10.4918 17.3697 9.23378 16.6927L6.00005 17.5556ZM9.3897 15.4947L9.58969 15.6131C10.5009 16.1524 11.5652 16.3755 12.6167 16.2478C13.6682 16.1201 14.6478 15.6487 15.4029 14.9071C16.1581 14.1655 16.6463 13.1954 16.7915 12.1478C16.9367 11.1003 16.7307 10.0343 16.2056 9.11586C15.6806 8.19742 14.866 7.47817 13.8887 7.0702C12.9115 6.66223 11.8265 6.58845 10.8029 6.86036C9.77923 7.13227 8.87444 7.7346 8.2295 8.57348C7.58456 9.41236 7.2357 10.4407 7.23727 11.4982C7.23641 12.375 7.47931 13.2349 7.93893 13.982L8.06435 14.1885L7.58301 15.9752L9.3897 15.4947Z" fill="#121212"/>
<path fill-rule="evenodd" clip-rule="evenodd" d="M14.2436 12.3202C14.1264 12.2258 13.9891 12.1594 13.8422 12.1259C13.6954 12.0925 13.5428 12.093 13.3962 12.1273C13.1759 12.2187 13.0335 12.5639 12.8911 12.7365C12.8611 12.7778 12.817 12.8068 12.7671 12.8181C12.7171 12.8293 12.6648 12.8219 12.6199 12.7974C11.8133 12.482 11.1372 11.9036 10.7014 11.1561C10.6642 11.1095 10.6466 11.0502 10.6523 10.9909C10.658 10.9316 10.6866 10.8768 10.7319 10.838C10.8907 10.6811 11.0073 10.4867 11.0709 10.2729C11.085 10.037 11.0309 9.80207 10.915 9.59607C10.8253 9.30726 10.6548 9.0501 10.4235 8.85497C10.3041 8.80139 10.1718 8.78343 10.0425 8.80324C9.91321 8.82306 9.7924 8.87981 9.69468 8.96664C9.52501 9.11278 9.39035 9.29505 9.30059 9.50003C9.21084 9.70501 9.16828 9.92748 9.17606 10.1511C9.17658 10.2766 9.19252 10.4016 9.22351 10.5233C9.30222 10.8156 9.42327 11.095 9.58282 11.3524C9.69793 11.5496 9.82353 11.7405 9.95907 11.9243C10.3996 12.528 10.9533 13.0406 11.5895 13.4336C11.9087 13.6333 12.25 13.7957 12.6064 13.9175C12.9766 14.085 13.3855 14.1494 13.7894 14.1036C14.0195 14.0688 14.2376 13.9781 14.4244 13.8394C14.6111 13.7008 14.7609 13.5184 14.8605 13.3084C14.919 13.1815 14.9368 13.0396 14.9114 12.9023C14.8503 12.6214 14.4741 12.4556 14.2436 12.3202Z" fill="#121212"/>
</svg>
