<svg width="24" height="24" viewBox="0 0 24 24" fill="none" xmlns="http://www.w3.org/2000/svg">
<rect width="24" height="24" rx="12" fill="#999999"/>
<path d="M9.98361 6.94453L11.7563 6.55322H12.4382L14.3472 7.46627L15.3018 9.42279V10.8576L16.5291 10.7271V11.1184V11.7706L15.7109 12.0315L15.4382 12.4228L16.12 13.7271L17.8927 14.6402L17.4836 15.1619L16.2563 15.5532L15.9836 16.075L15.7109 16.4663H14.2109L13.5291 16.7271L12.0291 17.5097L11.0745 17.2489L9.98361 16.7271L9.16543 16.4663H8.07452L7.66543 16.2054L7.25634 15.5532L6.57452 15.4228L6.02907 15.0315V14.6402L6.71089 14.2489L7.93816 13.3358L8.21089 12.4228L7.11998 11.7706L7.25634 11.1184L7.66543 10.7271L8.48361 10.8576L8.8927 8.50974L9.98361 6.94453Z" fill="white"/>
<path d="M12.008 6.92923C13.6847 6.92977 15.0814 8.26619 15.0835 9.87534C15.0839 10.2522 15.0961 10.5993 15.1183 10.919C15.132 11.1163 15.3034 11.2625 15.4999 11.2625C15.5288 11.2625 15.5583 11.2593 15.5879 11.2527L16.1132 11.1348C16.1355 11.1297 16.158 11.1273 16.1801 11.1273C16.3135 11.1273 16.4364 11.2146 16.4663 11.3439C16.5087 11.5265 16.4018 11.711 16.2169 11.7731L15.4196 12.0812C15.2183 12.159 15.1102 12.3688 15.1669 12.5694C15.8065 14.8335 17.5932 14.598 17.5932 14.893C17.5932 15.2634 16.2465 15.3157 16.1249 15.4322C16.0032 15.5487 16.1196 16.1141 15.8477 16.2236C15.7965 16.2442 15.7237 16.2514 15.6349 16.2514C15.4301 16.2514 15.1405 16.2131 14.8353 16.2131C14.5706 16.2131 14.294 16.2419 14.0509 16.3494C13.406 16.6346 12.7843 17.1674 12.0135 17.1674C11.2428 17.1674 10.621 16.6346 9.9761 16.3494C9.73295 16.2419 9.45651 16.2131 9.19173 16.2131C8.88654 16.2131 8.59689 16.2514 8.39216 16.2514C8.30341 16.2514 8.23053 16.2442 8.17932 16.2236C7.90747 16.1141 8.02385 15.5487 7.90218 15.4322C7.78052 15.3157 6.4338 15.2634 6.4338 14.893C6.4338 14.598 8.2205 14.8334 8.86018 12.5694C8.91687 12.3688 8.80875 12.159 8.60743 12.0812L7.8101 11.7731C7.62521 11.711 7.51832 11.5265 7.56068 11.3438C7.59064 11.2146 7.71348 11.1273 7.84689 11.1273C7.86903 11.1273 7.89149 11.1297 7.91384 11.1347L8.43911 11.2526C8.46872 11.2593 8.4982 11.2624 8.52714 11.2624C8.72363 11.2624 8.89502 11.1162 8.90873 10.919C8.93095 10.5993 8.94312 10.2522 8.9436 9.87532C8.94562 8.26619 10.3312 6.92979 12.008 6.92923ZM12.0082 6.29077H12.0077C11.5072 6.29092 11.0197 6.3872 10.5587 6.57695C10.1161 6.75907 9.71788 7.01874 9.37494 7.34878C9.03245 7.67838 8.76292 8.06102 8.57385 8.48608C8.37725 8.92807 8.27727 9.39522 8.27666 9.87455C8.27636 10.1099 8.27127 10.3383 8.26145 10.557L8.06603 10.5131C7.99432 10.497 7.92059 10.4889 7.84694 10.4888C7.63425 10.4888 7.42445 10.5576 7.25618 10.6826C7.08063 10.813 6.95752 10.9987 6.90959 11.2055C6.7955 11.6977 7.07938 12.1946 7.57133 12.3693L8.15651 12.5955C7.76902 13.7341 7.05452 13.9523 6.57337 14.0993C6.4457 14.1383 6.33542 14.172 6.23043 14.2219C5.81208 14.4206 5.76691 14.7574 5.76691 14.893C5.76691 15.1526 5.89528 15.3896 6.12839 15.5601C6.24446 15.6451 6.38824 15.7152 6.56793 15.7744C6.81284 15.8551 7.09674 15.9063 7.32749 15.9474C7.33864 16.0293 7.35499 16.1172 7.38254 16.2058C7.49696 16.5738 7.7384 16.7386 7.9208 16.8121C8.09387 16.8818 8.27271 16.8898 8.39216 16.8898C8.509 16.8898 8.63251 16.881 8.76327 16.8718C8.90356 16.8618 9.04862 16.8515 9.19173 16.8515C9.41351 16.8515 9.57861 16.8769 9.69643 16.929C9.85822 17.0005 10.0298 17.097 10.2115 17.1991C10.7172 17.4835 11.2903 17.8058 12.0135 17.8058C12.7367 17.8058 13.3098 17.4835 13.8156 17.1991C13.9972 17.097 14.1688 17.0005 14.3306 16.929C14.4484 16.8768 14.6135 16.8515 14.8353 16.8515C14.9784 16.8515 15.1235 16.8618 15.2638 16.8718C15.3945 16.881 15.518 16.8898 15.6349 16.8898C15.7543 16.8898 15.9331 16.8818 16.1062 16.8121C16.2886 16.7386 16.5301 16.5738 16.6445 16.2058C16.672 16.1172 16.6884 16.0293 16.6995 15.9474C16.9303 15.9063 17.2142 15.8551 17.4591 15.7744C17.6388 15.7152 17.7826 15.6451 17.8986 15.5601C18.1317 15.3896 18.2601 15.1526 18.2601 14.893C18.2601 14.7574 18.2149 14.4206 17.7965 14.2219C17.6915 14.172 17.5813 14.1383 17.4536 14.0993C16.9725 13.9524 16.2579 13.7341 15.8705 12.5955L16.4556 12.3693C16.9476 12.1946 17.2315 11.6977 17.1174 11.2055C17.0694 10.9987 16.9463 10.813 16.7708 10.6826C16.6025 10.5577 16.3928 10.4888 16.1801 10.4888C16.1065 10.4888 16.0328 10.497 15.961 10.5131L15.7655 10.557C15.7557 10.3383 15.7506 10.1099 15.7503 9.87453C15.7497 9.39481 15.6489 8.9272 15.4508 8.48462C15.2605 8.05977 14.9896 7.67723 14.6453 7.3476C14.3011 7.018 13.9018 6.75861 13.4583 6.57665C12.9964 6.38713 12.5085 6.29095 12.0082 6.29077Z" fill="#999999"/>
</svg>
