<svg width="64" height="64" viewBox="0 0 64 64" fill="none" xmlns="http://www.w3.org/2000/svg">
<path fill-rule="evenodd" clip-rule="evenodd" d="M5.33301 31.9999C5.33301 17.2723 17.2721 5.33325 31.9997 5.33325C39.0721 5.33325 45.8549 8.14277 50.8559 13.1437C55.8568 18.1447 58.6663 24.9275 58.6663 31.9999C58.6663 46.7275 46.7273 58.6666 31.9997 58.6666C17.2721 58.6666 5.33301 46.7275 5.33301 31.9999ZM27.1198 43.4133L42.6664 33.7066C43.2482 33.334 43.6001 32.6908 43.6001 31.9999C43.6001 31.3091 43.2482 30.6658 42.6664 30.2933L27.0664 20.5866C26.452 20.1992 25.6758 20.1754 25.0388 20.5243C24.4018 20.8733 24.004 21.5402 23.9998 22.2666V41.7333C23.9912 42.4773 24.3963 43.1646 25.0514 43.5173C25.7065 43.8701 26.5033 43.83 27.1198 43.4133Z" fill="white"/>
</svg>
