<svg width="24" height="24" viewBox="0 0 24 24" fill="none" xmlns="http://www.w3.org/2000/svg">
<rect width="24" height="24" rx="12" fill="#999999"/>
<path d="M15.9017 8.40536C15.2553 7.98391 14.7887 7.30957 14.6432 6.52348C14.6118 6.35364 14.5945 6.17884 14.5945 6H12.5314L12.5281 14.268C12.4934 15.1938 11.7314 15.937 10.7972 15.937C10.5069 15.937 10.2335 15.8644 9.9928 15.7377C9.4408 15.4472 9.06305 14.8686 9.06305 14.2028C9.06305 13.2465 9.84105 12.4685 10.7972 12.4685C10.9757 12.4685 11.147 12.498 11.3089 12.5487V10.4425C11.1413 10.4197 10.971 10.4055 10.7972 10.4055C8.7034 10.4055 7 12.1089 7 14.2028C7 15.4874 7.64185 16.6243 8.62107 17.3118C9.23786 17.7448 9.98811 18 10.7972 18C12.8911 18 14.5945 16.2966 14.5945 14.2028V10.0102C15.4036 10.591 16.395 10.9332 17.4647 10.9332V8.87016C16.8885 8.87016 16.3518 8.69885 15.9017 8.40536Z" fill="white"/>
</svg>
