<svg width="24" height="24" viewBox="0 0 24 24" fill="none" xmlns="http://www.w3.org/2000/svg">
<rect width="24" height="24" rx="12" fill="white"/>
<path d="M11.9998 6C8.62043 6 6 8.47643 6 11.8198C6 13.5688 6.71698 15.0807 7.88395 16.1247C7.98145 16.2117 8.04144 16.3347 8.04444 16.4667L8.07744 17.5347C8.07985 17.6133 8.10151 17.69 8.14054 17.7583C8.17957 17.8265 8.23476 17.8842 8.30127 17.9261C8.36778 17.968 8.44356 17.9929 8.52197 17.9987C8.60037 18.0045 8.679 17.9909 8.75092 17.9592L9.94189 17.4342C10.0424 17.3892 10.1564 17.3817 10.2629 17.4102C10.8104 17.5602 11.3924 17.6412 11.9998 17.6412C15.3792 17.6412 17.9997 15.1647 17.9997 11.8213C17.9997 8.47793 15.3792 6 11.9998 6Z" fill="#121212"/>
<path d="M8.39693 13.5223L10.1594 10.7264C10.2257 10.6211 10.3131 10.5307 10.4161 10.4609C10.5191 10.3912 10.6354 10.3435 10.7578 10.3209C10.8801 10.2984 11.0058 10.3014 11.1269 10.3299C11.248 10.3584 11.3619 10.4117 11.4613 10.4864L12.8638 11.5378C12.9264 11.5847 13.0026 11.6099 13.0808 11.6097C13.159 11.6094 13.235 11.5837 13.2973 11.5363L15.1902 10.0994C15.4422 9.90739 15.7722 10.2104 15.6042 10.4789L13.8403 13.2733C13.774 13.3786 13.6866 13.4689 13.5836 13.5387C13.4806 13.6085 13.3643 13.6562 13.2419 13.6787C13.1196 13.7013 12.9939 13.6982 12.8728 13.6697C12.7517 13.6413 12.6378 13.588 12.5383 13.5133L11.1359 12.4618C11.0732 12.4149 10.9971 12.3897 10.9189 12.39C10.8407 12.3903 10.7647 12.416 10.7024 12.4633L8.80942 13.9003C8.55743 14.0923 8.22744 13.7908 8.39693 13.5223Z" fill="white"/>
</svg>
