<svg width="24" height="24" viewBox="0 0 24 24" fill="none" xmlns="http://www.w3.org/2000/svg">
<g clip-path="url(#clip0_5231_5251)">
<rect width="24" height="24" rx="12" fill="white"/>
<path d="M15.3285 17H8.67146C7.75154 17 7 16.2485 7 15.3285V8.67146C7 7.75154 7.75154 7 8.67146 7H15.3285C16.2485 7 17 7.75154 17 8.67146V15.3285C17 16.2526 16.2526 17 15.3285 17Z" fill="#121212"/>
<path d="M12.002 14.5688C11.3162 14.5688 10.6714 14.3018 10.1868 13.8172C9.70224 13.3326 9.4353 12.6879 9.4353 12.002C9.4353 11.3162 9.70224 10.6714 10.1868 10.1868C10.6714 9.70224 11.3162 9.4353 12.002 9.4353C12.6879 9.4353 13.3326 9.70224 13.8172 10.1868C14.3018 10.6714 14.5688 11.3162 14.5688 12.002C14.5688 12.6879 14.3018 13.3326 13.8172 13.8172C13.3285 14.3018 12.6879 14.5688 12.002 14.5688ZM12.002 9.9815C10.8891 9.9815 9.9815 10.885 9.9815 12.002C9.9815 13.115 10.885 14.0226 12.002 14.0226C13.115 14.0226 14.0226 13.1191 14.0226 12.002C14.0185 10.8891 13.115 9.9815 12.002 9.9815Z" fill="white"/>
<path d="M15.0691 9.35113C15.3412 9.35113 15.5619 9.13048 15.5619 8.8583C15.5619 8.58612 15.3412 8.36548 15.0691 8.36548C14.7969 8.36548 14.5762 8.58612 14.5762 8.8583C14.5762 9.13048 14.7969 9.35113 15.0691 9.35113Z" fill="white"/>
</g>
<defs>
<clipPath id="clip0_5231_5251">
<rect width="24" height="24" fill="white"/>
</clipPath>
</defs>
</svg>
