<svg width="24" height="24" viewBox="0 0 24 24" fill="none" xmlns="http://www.w3.org/2000/svg">
<path d="M8.42857 22H4.14286C2.95982 22 2 21.0402 2 19.8571V4.14286C2 2.95982 2.95982 2 4.14286 2H8.42857C9.61161 2 10.5714 2.95982 10.5714 4.14286V19.8571C10.5714 21.0402 9.61161 22 8.42857 22ZM22 19.8571V4.14286C22 2.95982 21.0402 2 19.8571 2H15.5714C14.3884 2 13.4286 2.95982 13.4286 4.14286V19.8571C13.4286 21.0402 14.3884 22 15.5714 22H19.8571C21.0402 22 22 21.0402 22 19.8571Z" fill="white"/>
</svg>
